<svg width="252" height="75" viewBox="0 0 252 75" fill="none" xmlns="http://www.w3.org/2000/svg">
<path d="M70.5388 10.3751C70.4987 10.3187 70.4386 10.2623 70.3585 10.2058C70.2783 10.1607 70.1982 10.1156 70.098 10.0817C69.8977 10.0141 69.6572 9.99149 69.4369 10.0028C69.3166 10.0141 69.2165 10.0253 69.0963 10.0592C68.9961 10.093 68.8959 10.1269 68.8158 10.172C68.7356 10.2171 68.6755 10.2735 68.6154 10.3299C68.5553 10.3864 68.5152 10.4428 68.4952 10.5105C68.4952 10.5105 66.7923 10.0479 67.233 10.5894C67.5536 10.9392 67.9743 11.2663 68.4551 11.5484C68.4551 11.5484 70.4586 11.5258 71.0396 11.3904C71.3602 11.052 71.6206 10.691 71.7809 10.3074C72.0013 9.74329 70.659 10.3299 70.5388 10.3751Z" fill="#94BF3E"/>
<path d="M76.4507 36.5547C76.4507 36.7969 76.4507 37.0392 76.431 37.2814C76.3916 37.766 76.2931 38.2505 76.1552 38.7163C76.0764 38.9586 75.9976 39.1822 75.9188 39.4058C75.8203 39.6294 75.7218 39.8531 75.6036 40.0767C75.4854 40.3003 75.3672 40.5053 75.2096 40.7103C75.052 40.9152 74.9141 41.1016 74.7565 41.3066C74.264 41.8842 73.6927 42.3688 73.0623 42.7974C72.8456 42.9278 72.6289 43.0582 72.4123 43.1701C72.1759 43.2819 71.9592 43.3937 71.7228 43.4868C71.4864 43.58 71.25 43.6732 70.9939 43.7291C70.7575 43.8036 70.5014 43.8595 70.2453 43.9154C69.9892 43.9527 69.7331 44.0086 69.477 44.0273C69.2209 44.0459 68.9648 44.0645 68.7087 44.0645C68.4526 44.0645 68.1965 44.0459 67.9404 44.0273C67.6844 44.0086 67.4283 43.9714 67.1722 43.9154C66.9161 43.8595 66.66 43.8036 66.4236 43.7291C66.1872 43.6546 65.9311 43.58 65.6947 43.4868C65.4583 43.3937 65.2219 43.2819 65.0052 43.1701C64.7885 43.0582 64.5521 42.9278 64.3551 42.7974C64.1384 42.6669 63.9414 42.5178 63.7444 42.3501C63.5474 42.201 63.3504 42.0333 63.1732 41.8656C62.9959 41.6979 62.8383 41.5116 62.6807 41.3252C62.5231 41.1389 62.3655 40.9339 62.2276 40.7289C62.0897 40.5239 61.9518 40.3189 61.8336 40.0953C61.7154 39.8717 61.6169 39.6481 61.5184 39.4245C61.4199 39.2008 61.3411 38.9586 61.2623 38.735C61.1835 38.4927 61.1441 38.2691 61.085 38.0268C61.0456 37.7846 61.0062 37.5423 60.9865 37.3001C60.9668 37.0578 60.9668 36.8156 60.9668 36.5733C60.9668 36.4429 60.9865 36.3124 61.0456 36.182C61.1047 36.0515 61.1835 35.9397 61.282 35.8466C61.6957 35.4552 62.3852 35.4552 62.7989 35.8466C62.9959 36.0329 63.1141 36.2938 63.1141 36.5547C63.1141 36.7224 63.1141 36.9087 63.1338 37.0765C63.1535 37.2442 63.1732 37.4305 63.2125 37.5982C63.2519 37.7659 63.2913 37.9337 63.3504 38.1014C63.4095 38.2691 63.4686 38.4368 63.5474 38.5859C63.6065 38.7536 63.6853 38.9027 63.7838 39.0518C63.8626 39.2008 63.9611 39.3499 64.0596 39.499C64.1581 39.6481 64.2763 39.7785 64.3945 39.909C64.5127 40.0394 64.6309 40.1698 64.7688 40.3003C64.9067 40.4307 65.0249 40.5425 65.1825 40.6543C65.3401 40.7662 65.478 40.8593 65.6159 40.9711C65.7735 41.0643 65.9311 41.1575 66.0887 41.232C66.2463 41.3066 66.4236 41.3811 66.5812 41.4557C66.7388 41.5302 66.9358 41.5861 67.0934 41.6234C67.2707 41.6793 67.448 41.7165 67.6253 41.7538C68.3541 41.8843 69.1027 41.8843 69.8119 41.7538C69.9892 41.7165 70.1665 41.6793 70.3438 41.6234C70.5211 41.5675 70.6984 41.5116 70.856 41.4557C71.0333 41.3811 71.1909 41.3066 71.3485 41.232C71.5061 41.1575 71.6637 41.0643 71.8213 40.9711C71.9789 40.878 72.1168 40.7662 72.2547 40.6543C72.3926 40.5425 72.5305 40.4307 72.6683 40.3003C72.8062 40.1698 72.9244 40.0394 73.0426 39.909C73.1608 39.7785 73.279 39.6294 73.3775 39.499C73.476 39.3499 73.5745 39.2008 73.6533 39.0518C73.7321 38.9027 73.8109 38.735 73.8897 38.5859C73.9685 38.4182 74.0276 38.2691 74.067 38.1014C74.1261 37.9337 74.1655 37.7659 74.2049 37.5982C74.2837 37.2628 74.3034 36.9087 74.3231 36.5547C74.3231 36.2938 74.4413 36.0329 74.6383 35.8466C74.9535 35.5484 75.4066 35.4739 75.8006 35.6229C75.9385 35.6788 76.0567 35.7534 76.1552 35.8466C76.3325 36.0515 76.431 36.3124 76.4507 36.5547Z" fill="white"/>
<path d="M74.1294 23.7301L73.1844 14.5674C73.148 14.3633 73.039 14.2 72.8936 14.098L69.6041 12.3226L68.5137 12.4654C68.5137 12.4654 65.8603 14.9347 65.8785 14.9347L65.8058 15.0163C65.6422 15.1796 65.5877 15.4449 65.624 15.6693L66.5509 24.7097L74.1294 23.7301Z" fill="#94BF3E"/>
<path d="M73.3269 12.3914C73.2457 11.8408 73.1036 11.3075 72.9209 10.7742L70.3021 12.0129C70.2412 11.9613 70.1803 11.9269 70.0991 11.8752C70.0179 11.8408 69.9367 11.8064 69.8758 11.7892C69.7946 11.772 69.7134 11.7548 69.6322 11.7376C69.551 11.7376 69.4698 11.7376 69.3682 11.7376C69.287 11.7376 69.2058 11.7548 69.1246 11.772C68.9622 11.8064 68.7998 11.8924 68.678 11.9785C68.6171 12.0301 68.5562 12.0817 68.4953 12.1333L65.7141 11.3763C65.6126 11.9441 65.5923 12.529 65.6329 13.114C65.7141 13.6473 65.8765 14.1634 66.1201 14.6451L68.5562 13.4752C68.6171 13.5441 68.6983 13.5957 68.7795 13.6473C68.8607 13.6989 68.9419 13.7333 69.0434 13.7677C69.1449 13.8021 69.2261 13.8193 69.3276 13.8365C69.4292 13.8537 69.5307 13.8537 69.6322 13.8365C69.7337 13.8193 69.8352 13.8021 69.9164 13.7849C70.0179 13.7505 70.0991 13.7161 70.1803 13.6645C70.2615 13.6129 70.3427 13.5613 70.4036 13.4925C70.4645 13.4236 70.5254 13.3548 70.5863 13.286L73.3066 14.043C73.3675 13.4924 73.3675 12.9419 73.3269 12.3914Z" fill="#2AAA5A"/>
<path d="M71.0851 25.4116C76.4411 25.1225 81.4927 24.8695 83.7852 24.743H83.8258H83.8664H83.9881L84.9416 21.3456C85.0228 21.0384 84.901 20.7312 84.617 20.5324C84.5359 20.4782 84.4141 20.424 84.3127 20.4059L72.5661 17.7675C72.4647 17.7494 72.343 17.7314 72.2213 17.7494C71.8764 17.8036 71.5923 18.0205 71.5112 18.3277L69.4824 25.4839L71.0851 25.4116Z" fill="#E2127F"/>
<path d="M77.8304 24.5184L79.5483 19.2469L76.133 18.5162L74.1289 24.7097L77.8304 24.5184Z" fill="#F19123"/>
<path d="M55.6905 26.258C55.7672 26.2393 55.8438 26.2393 55.9205 26.2206C58.5461 26.0712 65.0047 25.6975 71.2525 25.3425L71.655 25.3238L70.2368 19.0643C70.2176 18.9709 70.1793 18.8775 70.1218 18.784C70.0643 18.7093 69.9876 18.6345 69.8918 18.5785C69.796 18.5224 69.7002 18.4851 69.6043 18.4664C69.5085 18.4477 69.3935 18.4477 69.2977 18.4664L55.403 21.456C55.3072 21.4747 55.2114 21.512 55.1156 21.5681C55.0389 21.6241 54.9622 21.6989 54.9048 21.7923C54.8473 21.8857 54.8089 21.9792 54.7898 22.0726C54.7706 22.166 54.7706 22.2781 54.7898 22.3715L55.6905 26.258ZM82.5599 18.2422C82.3299 18.5598 81.3142 18.5972 80.0876 18.4851C80.835 17.8871 81.8124 17.3266 82.2916 17.7377C82.5599 17.9058 82.6174 18.1487 82.5599 18.2422ZM74.8172 16.8782C74.6831 16.766 74.6831 16.5605 74.7789 16.4297C74.8555 16.355 74.9514 16.2989 75.0472 16.2616C75.6605 16.0934 76.3313 16.9903 76.7529 17.8311C76.0821 17.6069 75.4113 17.2892 74.8172 16.8782ZM83.2115 17.5695C83.1157 17.4013 82.9815 17.2519 82.8474 17.1211C81.6016 16.0747 79.666 17.7003 79.0144 18.3169C78.9569 18.2235 78.8802 18.1301 78.7844 18.074C78.6886 17.9993 78.5927 17.9619 78.4777 17.9245C78.3627 17.8871 78.2478 17.8871 78.1328 17.9058C78.0178 17.9245 77.9028 17.9619 77.807 18.0179C77.4428 17.1398 76.3887 15.047 74.8555 15.4768C74.6639 15.5328 74.4914 15.6263 74.3189 15.7384C73.8015 16.1121 73.744 16.5045 73.7823 16.766C73.9931 17.8685 76.4846 18.6345 77.347 18.8775C77.3662 18.9709 77.3853 19.0456 77.4237 19.139C77.5003 19.3072 77.6345 19.438 77.807 19.5314C77.9794 19.6249 78.1519 19.6622 78.3436 19.6435C78.4394 19.6249 78.5352 19.6062 78.6119 19.5688C78.7844 19.4941 78.9185 19.3633 79.0144 19.2138H79.0527C79.8768 19.3259 82.5982 19.6622 83.269 18.7093C83.4223 18.4851 83.5373 18.0927 83.2115 17.5695Z" fill="#F19123"/>
<path d="M66.3869 25.9757L65.0269 20.0645L60.1934 21.1056L61.388 26.2581L66.3869 25.9757Z" fill="#DF2228"/>
<path d="M63.7936 19.1076C64.1304 18.1459 64.7246 17.0618 65.4773 17.1492C65.5962 17.1667 65.715 17.2017 65.814 17.2367C65.9725 17.3066 66.0715 17.394 66.0715 17.429C66.0914 17.7787 65.101 18.4782 63.7936 19.1076ZM57.5146 19.3175C57.4551 19.265 57.4353 19.1951 57.4353 19.1076C57.4353 19.0377 57.4551 18.9677 57.5146 18.8978C57.5938 18.8104 57.673 18.7404 57.7721 18.6705C58.4257 18.3033 59.5152 19.0377 60.3075 19.7896C58.8219 19.7371 57.7523 19.5797 57.5146 19.3175ZM66.329 16.3974C66.1112 16.2925 65.8933 16.24 65.6556 16.205C63.7936 16.0127 62.9617 18.2858 62.6448 19.3699C62.4467 19.2825 62.2288 19.265 62.0308 19.3C61.9317 19.3175 61.8327 19.3524 61.7336 19.4049C61.6544 19.4573 61.5752 19.5273 61.4959 19.5972C60.7036 18.7579 58.7823 16.9919 57.1976 17.9011C56.9996 18.0235 56.8213 18.1634 56.6826 18.3383C56.2073 18.8978 56.2865 19.3175 56.445 19.5797C57.0788 20.6988 60.4263 20.7163 61.4365 20.6813H61.6742C61.7336 20.7163 61.7733 20.7513 61.8327 20.7688C61.8921 20.7862 61.9515 20.8037 62.0109 20.8212C62.0704 20.8387 62.1496 20.8387 62.209 20.8387C62.2684 20.8387 62.3477 20.8387 62.4071 20.8212C62.4665 20.8037 62.5259 20.7862 62.5854 20.7688C62.6448 20.7513 62.7042 20.7163 62.7438 20.6813C62.8033 20.6464 62.8429 20.6114 62.8825 20.5764C62.9221 20.5414 62.9617 20.489 63.0013 20.4365L63.239 20.3491C64.1502 19.9819 67.1412 18.653 67.161 17.394C67.161 17.0968 67.0223 16.6771 66.3092 16.3624" fill="#DF2228"/>
<path d="M84.9287 56.0852C83.4467 49.3395 82.4716 36.9495 84.5777 26.5066C84.5582 26.2509 84.4412 25.9952 84.2657 25.7986C84.1682 25.7002 84.0707 25.6216 83.9537 25.5822C83.8367 25.5232 83.7002 25.5036 83.5832 25.4839C78.6689 25.7789 60.5914 26.8605 55.7746 27.1359C55.6381 27.1359 55.5016 27.1752 55.3846 27.2342C55.2676 27.2932 55.1506 27.3719 55.0726 27.4702C54.9751 27.5686 54.9166 27.6865 54.858 27.8045C54.7995 27.9225 54.78 28.0602 54.78 28.1979C54.78 28.2175 54.78 28.2372 54.78 28.2569C55.8721 34.6092 56.2426 45.7995 54 56.2032C54 56.3212 54.0195 56.4392 54.078 56.5572C54.117 56.6752 54.195 56.7735 54.273 56.8718C54.429 57.0488 54.6435 57.1865 54.8775 57.2258H84.0707C84.1877 57.2062 84.3047 57.1668 84.4217 57.1078C84.5387 57.0488 84.6362 56.9702 84.7142 56.8718C84.8702 56.6752 84.9677 56.4392 84.9677 56.1835C84.9287 56.1442 84.9287 56.1245 84.9287 56.0852Z" fill="#1E93D1"/>
<path d="M76.4507 36.7843C76.4507 37.0327 76.431 37.262 76.3916 37.5104C76.3719 37.7397 76.3128 37.9881 76.2734 38.2174C76.234 38.4467 76.1552 38.6951 76.0764 38.9053C75.9976 39.1155 75.9188 39.3639 75.8203 39.5741C75.7218 39.7843 75.6036 40.0136 75.4854 40.2238C75.3672 40.434 75.2293 40.6442 75.0914 40.8352C74.9535 41.0263 74.7959 41.2174 74.6383 41.4085C74.4807 41.5996 74.3034 41.7715 74.1261 41.9435C73.9488 42.1155 73.7518 42.2684 73.5745 42.4212C73.3775 42.5741 73.1805 42.7078 72.9638 42.8416C72.7471 42.9754 72.5502 43.09 72.3138 43.2047C72.0971 43.3193 71.8607 43.4148 71.644 43.5104C71.4076 43.6059 71.1712 43.6824 70.9348 43.7588C70.6984 43.8352 70.462 43.8925 70.2059 43.9308C69.9695 43.969 69.7134 44.0072 69.4573 44.0263C69.2012 44.0454 68.9648 44.0645 68.7087 44.0645C68.4526 44.0645 68.2162 44.0454 67.9601 44.0263C67.7041 44.0072 67.4677 43.969 67.2116 43.9308C66.9555 43.8925 66.7191 43.8352 66.4827 43.7588C66.2463 43.6824 66.0099 43.6059 65.7735 43.5104C65.5371 43.4148 65.3204 43.3193 65.1037 43.2047C64.887 43.09 64.6703 42.9754 64.4536 42.8416C64.2369 42.7078 64.0399 42.5741 63.8429 42.4212C63.6459 42.2684 63.4686 42.1155 63.2913 41.9435C63.1141 41.7715 62.9368 41.5996 62.7792 41.4085C62.6216 41.2174 62.464 41.0263 62.3261 40.8352C62.1882 40.6442 62.0503 40.434 61.9321 40.2238C61.8139 40.0136 61.6957 39.8034 61.5972 39.5741C61.4987 39.3448 61.4199 39.1346 61.3411 38.9053C61.2623 38.676 61.2032 38.4467 61.1441 38.2174C61.085 37.9881 61.0456 37.7397 61.0259 37.5104C60.9865 37.2811 60.9865 37.0327 60.9668 36.7843C60.9668 36.6505 60.9865 36.5168 61.0456 36.383C61.1047 36.2493 61.1835 36.1537 61.282 36.0391C61.3805 35.9435 61.4987 35.8671 61.6366 35.8098C62.1685 35.5996 62.7989 35.848 63.0156 36.3639C63.0747 36.4977 63.0944 36.6314 63.0944 36.7652C63.0944 36.9372 63.0944 37.1282 63.1141 37.3002C63.1338 37.4722 63.1535 37.6442 63.1929 37.8352C63.2322 38.0072 63.2716 38.1792 63.3307 38.3512C63.3898 38.5231 63.4489 38.6951 63.508 38.848C63.5671 39.02 63.6656 39.1728 63.7444 39.3257C63.8232 39.4786 63.9217 39.6314 64.0202 39.7843C64.1187 39.9372 64.2369 40.0709 64.3551 40.2047C64.4733 40.3384 64.5915 40.4722 64.7294 40.6059C64.8673 40.7397 64.9855 40.8543 65.1431 40.969C65.3007 41.0836 65.4386 41.1792 65.5765 41.2938C65.7341 41.3894 65.8917 41.4849 66.0493 41.5613C66.2069 41.6378 66.3645 41.7142 66.5418 41.7907C66.7191 41.8671 66.8767 41.9244 67.054 41.9626C67.2313 42.0199 67.4086 42.0582 67.5859 42.0964C67.7632 42.1346 67.9404 42.1537 68.1374 42.1728C68.3147 42.1919 68.5117 42.1919 68.689 42.1919C68.8663 42.1919 69.0633 42.1919 69.2406 42.1728C69.4179 42.1537 69.5952 42.1346 69.7922 42.0964C69.9892 42.0582 70.1468 42.0199 70.3241 41.9626C70.5014 41.9053 70.6787 41.848 70.8363 41.7907C71.0136 41.7142 71.1712 41.6378 71.3288 41.5613C71.4864 41.4849 71.644 41.3894 71.8016 41.2938C71.9592 41.1983 72.0971 41.0836 72.235 40.969C72.3729 40.8543 72.5108 40.7397 72.6486 40.6059C72.7865 40.4722 72.9047 40.3575 73.0229 40.2047C73.1411 40.0518 73.2396 39.918 73.3578 39.7843C73.476 39.6505 73.5548 39.4786 73.6336 39.3257C73.7124 39.1728 73.7912 39.0008 73.87 38.848C73.9488 38.676 74.0079 38.5231 74.0473 38.3512C74.1064 38.1792 74.1458 38.0072 74.1852 37.8352C74.2246 37.6633 74.2443 37.4913 74.264 37.3002C74.2837 37.1091 74.2837 36.9372 74.2837 36.7652C74.2837 36.4977 74.4019 36.2302 74.5989 36.0391C74.6974 35.9435 74.8156 35.8671 74.9535 35.8098C75.2096 35.7142 75.5051 35.7142 75.7612 35.8098C75.8991 35.8671 75.9976 35.9435 76.1158 36.0391C76.2143 36.1346 76.2931 36.2493 76.3522 36.383C76.431 36.5168 76.4507 36.6505 76.4507 36.7843ZM62.1094 33.8034C61.9715 33.8034 61.8336 33.7843 61.6957 33.727C61.5578 33.6697 61.4593 33.6123 61.3411 33.5168C61.0456 33.2302 60.9471 32.7716 61.1047 32.3894C61.2032 32.141 61.4199 31.9308 61.676 31.8353C61.8139 31.7779 61.9518 31.7588 62.0897 31.7588C62.2276 31.7588 62.3655 31.7779 62.5034 31.8353C62.6413 31.8926 62.7398 31.969 62.858 32.0646C62.9565 32.1601 63.0353 32.2748 63.0944 32.4085C63.311 32.9435 63.055 33.5359 62.5034 33.7652C62.3852 33.7843 62.2473 33.8034 62.1094 33.8034ZM75.3869 33.7461C75.249 33.7461 75.0914 33.727 74.9732 33.6697C74.8353 33.6123 74.7171 33.555 74.6186 33.4595C74.5201 33.3639 74.4413 33.2493 74.3822 33.1155C74.1458 32.5996 74.4019 31.9881 74.9338 31.7588C75.0717 31.7015 75.249 31.6633 75.4066 31.6824C75.5445 31.6824 75.6824 31.7206 75.8006 31.7779C75.9188 31.8353 76.037 31.9117 76.1355 32.0072C76.234 32.1028 76.3128 32.2174 76.3522 32.3321C76.4507 32.5805 76.4507 32.848 76.3522 33.0964C76.1749 33.4786 75.8006 33.727 75.3869 33.7461Z" fill="white"/>
<path d="M178.579 13.5851L178.502 13.7013V57.1289H178.968C181.878 57.1289 184.769 55.6755 185.992 53.6214L186.05 53.5245V10H185.584C182.829 10 180.074 11.3953 178.579 13.5851ZM121.882 13.5851L121.805 13.7013V57.1289H122.27C125.181 57.1289 128.072 55.6755 129.294 53.6214L129.353 53.5245V10H128.906C126.151 10 123.396 11.3953 121.882 13.5851ZM102.323 28.6035H102.226L102.149 28.6423C100.325 29.6887 98.7531 31.7429 98.171 33.8939L97.9188 34.8241L98.8113 34.4365C99.9367 33.9326 103.507 33.952 106.34 35.7736C108.746 37.3045 110.046 39.7462 110.085 42.8662C110.085 50.2882 104.768 51.7998 103.332 51.7998C97.6665 51.7998 96.3859 45.2885 96.3859 43.0019V17.9646H95.9202C93.1649 17.9646 90.5842 19.263 88.9349 21.4528L88.8379 21.5691V42.7693C88.8379 45.928 90.1185 50.4433 93.7276 53.6407C96.4829 56.0825 99.5293 57.2258 103.332 57.2258C107.291 57.2258 117.555 54.6484 117.555 42.8856C117.516 39.3587 116.507 36.51 114.392 33.9133C110.648 29.3399 104.516 28.3322 102.323 28.6035ZM133.796 32.2079L133.699 32.3242V57.2258H134.165C136.901 57.2064 139.481 55.9856 141.189 53.8733L141.286 53.757V28.7392H140.82C138.065 28.7392 135.465 30.0182 133.796 32.2079ZM137.502 17.984C137.25 17.984 136.998 18.0034 136.765 18.0615C136.512 18.1003 136.28 18.1778 136.047 18.2747C135.814 18.3716 135.601 18.4879 135.387 18.6235C135.174 18.7592 134.98 18.9142 134.805 19.0886C134.63 19.263 134.475 19.4568 134.339 19.67C134.203 19.8831 134.087 20.0963 133.99 20.3288C133.699 21.0265 133.621 21.7822 133.777 22.5186C133.815 22.7705 133.893 23.0031 133.99 23.2356C134.087 23.4682 134.203 23.6813 134.339 23.8945C134.611 24.3015 134.98 24.6696 135.387 24.9409C136.668 25.7936 138.317 25.7936 139.598 24.9409C140.005 24.6696 140.374 24.3208 140.645 23.8945C140.781 23.6813 140.898 23.4682 140.995 23.2356C141.383 22.3055 141.383 21.259 140.995 20.3482C140.898 20.1157 140.781 19.9025 140.645 19.6893C140.51 19.4762 140.354 19.2824 140.18 19.108C140.005 18.9336 139.811 18.7785 139.598 18.6429C139.384 18.5072 139.171 18.391 138.938 18.2941C138.705 18.1972 138.472 18.1197 138.22 18.0809C138.007 18.0228 137.754 17.984 137.502 17.984ZM190.474 32.1498L190.377 32.2661V57.1677H190.843C193.578 57.1483 196.14 55.9274 197.867 53.8152L197.964 53.6989V28.681H197.498C194.762 28.7004 192.162 29.9794 190.474 32.1498ZM194.199 25.5029C194.704 25.5029 195.189 25.406 195.655 25.2123C195.887 25.1154 196.101 24.9991 196.314 24.8634C196.722 24.5921 197.09 24.2239 197.362 23.817C198.061 22.7705 198.196 21.4334 197.711 20.2707C197.614 20.0381 197.498 19.825 197.362 19.6118C196.799 18.7785 195.946 18.1972 194.956 18.0034C194.471 17.9065 193.966 17.9065 193.481 18.0034C193.229 18.0615 192.996 18.1197 192.763 18.2166C192.531 18.3134 192.317 18.4297 192.104 18.5654C191.696 18.8367 191.328 19.2049 191.056 19.6118C190.202 20.8908 190.202 22.538 191.056 23.817C191.328 24.2239 191.696 24.5921 192.104 24.8634C192.705 25.2898 193.443 25.5029 194.199 25.5029ZM159.001 28.6035H158.904L158.827 28.6423C157.003 29.6887 155.431 31.7429 154.849 33.8939L154.577 34.8241L155.47 34.4365C156.595 33.9326 160.165 33.952 162.998 35.7736C165.404 37.3045 166.704 39.7462 166.743 42.8662C166.743 50.2882 161.427 51.7998 159.991 51.7998C154.325 51.7998 153.044 45.2885 153.044 43.0019V17.9646H152.579C149.823 17.9646 147.243 19.263 145.593 21.4528L145.496 21.5691V21.7241C145.496 23.3713 145.496 42.7693 145.496 42.7693C145.496 45.928 146.777 50.4433 150.386 53.6407C153.141 56.0825 156.188 57.2258 159.991 57.2258C163.949 57.2258 174.214 54.6484 174.214 42.8856C174.175 39.3587 173.185 36.51 171.07 33.9133C167.325 29.3399 161.213 28.3322 159.001 28.6035Z" fill="#1E93D1"/>
</svg>
