<svg width="252" height="75" viewBox="0 0 252 75" fill="none" xmlns="http://www.w3.org/2000/svg">
<path fill-rule="evenodd" clip-rule="evenodd" d="M17.0291 40.6373L12.4834 21.9208C12.3578 21.4088 12.1279 20.9282 11.8082 20.509C11.4884 20.0898 11.0857 19.741 10.6251 19.4845C10.1645 19.228 9.65593 19.0692 9.1312 19.0181C8.60647 18.9669 8.07683 19.0246 7.57537 19.1873L2.65623 20.7865C2.15435 20.9485 1.69129 21.2124 1.29601 21.5616C0.900728 21.9107 0.581721 22.3377 0.358931 22.8157C0.136141 23.2937 0.0143579 23.8126 0.00119463 24.3398C-0.0119687 24.8671 0.0837709 25.3914 0.282428 25.8799L7.6141 43.6945C7.98024 44.5906 8.67153 45.3152 9.54941 45.7231C10.4273 46.131 11.4269 46.192 12.3479 45.894L14.492 45.1968C15.4126 44.8977 16.1859 44.2614 16.6565 43.4156C17.1271 42.5698 17.2602 41.5772 17.0291 40.6373ZM17.7124 58.7452C16.7241 59.0647 15.6632 59.0842 14.6638 58.8012C13.6643 58.5183 12.7711 57.9456 12.0969 57.1554C11.4227 56.3653 10.9976 55.3931 10.8755 54.3616C10.7533 53.3301 10.9395 52.2855 11.4104 51.3597C11.8814 50.4339 12.6162 49.6684 13.5219 49.1598C14.4275 48.6513 15.4636 48.4224 16.4993 48.5022C17.5349 48.5819 18.5237 48.9667 19.3409 49.608C20.158 50.2492 20.7669 51.1182 21.0905 52.1052C21.3063 52.7629 21.3899 53.4568 21.3368 54.1469C21.2837 54.8371 21.0947 55.51 20.7808 56.1269C20.467 56.7439 20.0343 57.2928 19.5078 57.7421C18.9812 58.1914 18.3711 58.5323 17.7124 58.7452ZM28.6325 53.9395C35.3776 51.7483 40.8224 43.9712 38.1139 35.6324C35.4025 27.2992 26.4274 24.2033 19.6823 26.3945C18.9251 26.64 18.289 27.1631 17.9019 27.8587C17.5149 28.5542 17.4057 29.3705 17.5962 30.1434L18.2768 32.946C18.3808 33.3667 18.5702 33.7616 18.8333 34.1059C19.0965 34.4502 19.4277 34.7367 19.8064 34.9475C20.1851 35.1582 20.6031 35.2887 21.0344 35.3309C21.4657 35.3731 21.9011 35.326 22.3134 35.1925L22.5901 35.104C23.2575 34.8668 23.9656 34.7657 24.6727 34.8068C25.3798 34.8479 26.0715 35.0302 26.707 35.3431C27.3424 35.656 27.9087 36.093 28.3724 36.6284C28.8361 37.1638 29.1879 37.7867 29.4068 38.4603C29.6257 39.1339 29.7074 39.8446 29.6471 40.5503C29.5868 41.256 29.3856 41.9425 29.0555 42.5692C28.7254 43.1959 28.2731 43.75 27.7253 44.199C27.1774 44.6479 26.5451 44.9825 25.8658 45.183L25.5891 45.2715C25.1776 45.4061 24.7982 45.6241 24.4746 45.9119C24.1511 46.1997 23.8903 46.5511 23.7086 46.9441C23.5269 47.3371 23.4281 47.7634 23.4184 48.1963C23.4088 48.6292 23.4885 49.0595 23.6525 49.4602L24.7398 52.1329C25.0404 52.87 25.6089 53.4661 26.3311 53.8012C27.0532 54.1364 27.8754 54.1858 28.6325 53.9395Z" fill="#E31E52"/>
<path fill-rule="evenodd" clip-rule="evenodd" d="M59.0632 32.5171C62.6488 30.5971 67.0672 30.9484 70.0607 33.9392C72.9325 36.8165 72.9906 40.9527 72.9906 42.5795C72.9906 47.186 70.863 51.0676 66.8126 52.2628C61.4204 53.9145 53.1619 52.4565 53.1619 52.4565C52.9787 52.4361 52.8094 52.3489 52.6864 52.2116C52.5635 52.0744 52.4953 51.8966 52.4951 51.7123V26.2589C52.4951 26.0982 52.5589 25.9441 52.6726 25.8305C52.7862 25.7168 52.9403 25.653 53.101 25.653H58.1585C58.3192 25.653 58.4733 25.7168 58.5869 25.8305C58.7006 25.9441 58.7644 26.0982 58.7644 26.2589V32.3456C58.7646 32.3805 58.7739 32.4147 58.7914 32.4448C58.809 32.475 58.8342 32.5 58.8644 32.5174C58.8947 32.5347 58.9289 32.5439 58.9638 32.5438C58.9987 32.5438 59.033 32.5346 59.0632 32.5171ZM59.0106 47.1058C60.5655 47.5429 63.6697 47.7089 65.4459 45.8635V45.8691C66.6632 44.6849 68.0881 40.8559 65.2273 37.9951C64.0211 36.7612 62.0457 36.0944 59.3011 37.2398C59.1386 37.3175 59.0017 37.44 58.9066 37.593C58.8115 37.7459 58.7621 37.9229 58.7644 38.103V46.7572C58.7619 46.8341 58.7847 46.9098 58.8291 46.9727C58.8735 47.0356 58.9373 47.0823 59.0106 47.1058ZM146.639 26.2756V52.6032C146.64 52.7101 146.683 52.8124 146.758 52.888C146.834 52.9636 146.936 53.0064 147.043 53.0071H152.541C152.648 53.0071 152.751 52.9646 152.827 52.889C152.903 52.8133 152.946 52.7106 152.947 52.6032V26.2756C152.947 26.1149 152.883 25.9607 152.77 25.8471C152.656 25.7335 152.502 25.6697 152.341 25.6697H147.24C147.08 25.6711 146.927 25.7356 146.815 25.8491C146.702 25.9625 146.639 26.1158 146.639 26.2756ZM97.5199 48.3508C97.2108 48.3074 96.9176 48.1865 96.6678 47.9994C96.3911 47.756 96.2444 47.3271 96.214 46.6299V32.0634C96.2133 31.9235 96.1574 31.7895 96.0584 31.6906C95.9595 31.5916 95.8255 31.5357 95.6856 31.535H90.5008C90.3607 31.535 90.2263 31.5907 90.1272 31.6898C90.0281 31.7889 89.9724 31.9233 89.9724 32.0634V45.5758C89.9751 45.596 89.9751 45.6165 89.9724 45.6367C89.4744 47.3963 87.4105 47.9275 85.792 47.6536C83.4929 47.2663 82.5328 45.3351 82.6158 43.1107C82.6158 43.0333 82.6463 32.816 82.6518 32.0634C82.6518 31.9233 82.5961 31.7889 82.497 31.6898C82.3979 31.5907 82.2635 31.535 82.1234 31.535H76.9497C76.8108 31.535 76.6775 31.59 76.579 31.688C76.4805 31.786 76.4248 31.9189 76.424 32.0579C76.424 34.2712 76.4074 44.9118 76.4074 44.9118C76.4074 46.5718 76.9276 51.9502 82.3336 52.9352C84.8762 53.3972 87.9002 52.581 90.3431 50.8436C90.3656 50.8268 90.3913 50.8147 90.4185 50.8081C90.4458 50.8015 90.4741 50.8005 90.5018 50.8051C90.5295 50.8098 90.5559 50.82 90.5795 50.8352C90.6032 50.8503 90.6234 50.8701 90.6392 50.8934C91.2277 51.7051 92.065 52.3025 93.024 52.5949C94.4507 53.064 96.3887 52.8748 96.9741 52.8176L96.9887 52.8162C97.0806 52.8061 97.1663 52.7649 97.2317 52.6995C97.2971 52.6342 97.3382 52.5484 97.3484 52.4565L97.8436 48.8156C97.8621 48.7111 97.8385 48.6034 97.7778 48.5163C97.7171 48.4292 97.6244 48.3697 97.5199 48.3508ZM201.245 40.4021C201.06 38.0311 200.326 35.5577 198.821 33.7621L198.781 33.7136L198.742 33.6674C198.123 32.9214 196.467 30.927 191.368 30.9429C189.279 30.9429 187.188 31.084 185.107 31.2832C183.917 31.3911 182.728 31.5128 181.541 31.6373C180.772 31.7181 180.774 32.1844 180.777 32.8118C180.777 32.8504 180.777 32.8896 180.777 32.9294V58.0563C180.762 58.1784 180.771 58.3025 180.803 58.4212C180.836 58.5399 180.892 58.651 180.968 58.7479C181.156 58.8833 181.388 58.9426 181.618 58.9139H186.172C186.284 58.9456 186.402 58.9474 186.515 58.9193C186.628 58.8911 186.732 58.8339 186.815 58.7534C186.899 58.6728 186.961 58.5717 186.993 58.4601C187.026 58.3485 187.029 58.2302 187.002 58.1171C187.013 56.6576 187.01 55.2176 187.006 53.7728C187.004 53.0486 187.002 52.3231 187.002 51.5933C187.002 51.5546 187.012 51.5165 187.033 51.4836C187.053 51.4507 187.082 51.4243 187.117 51.4077C187.152 51.3911 187.191 51.3849 187.23 51.3898C187.268 51.3948 187.305 51.4107 187.334 51.4356C189.149 53.0154 191.863 53.4525 194.193 52.7775C196.661 52.0692 198.708 50.1768 199.884 47.8888C201.06 45.6007 201.441 42.9696 201.245 40.4021ZM194.882 43.4289C194.361 45.4624 193.429 47.0256 190.629 47.1943C189.229 47.2746 187.005 46.4833 187.005 45.1802V37.3865C187.005 37.0877 187.038 36.8691 187.329 36.7391C187.929 36.4624 189.542 36.2383 190.779 36.277C196.102 36.4292 195.153 42.4246 194.895 43.4289H194.882ZM113.807 41.5144C113.364 42.1424 113.364 42.3554 113.779 42.942L121.117 52.3791C121.16 52.4396 121.186 52.5111 121.191 52.5854C121.196 52.6597 121.18 52.7339 121.144 52.7996C121.111 52.8664 121.06 52.9224 120.996 52.9611C120.933 52.9998 120.859 53.0196 120.785 53.0182H114.742C114.675 53.0179 114.61 53.0011 114.551 52.9692C114.492 52.9373 114.442 52.8915 114.405 52.8356L108.086 44.6407C108.047 44.5909 107.993 44.5543 107.933 44.5358C107.872 44.5172 107.808 44.5176 107.747 44.5369C107.687 44.5561 107.634 44.5934 107.596 44.6436C107.557 44.6938 107.535 44.7546 107.532 44.8178V52.6143C107.532 52.7216 107.488 52.8244 107.412 52.9C107.336 52.9757 107.233 53.0182 107.126 53.0182H101.67C101.563 53.0175 101.461 52.9747 101.385 52.8991C101.309 52.8235 101.267 52.7212 101.266 52.6143V26.2756C101.265 26.1953 101.28 26.1157 101.311 26.0413C101.341 25.967 101.386 25.8994 101.442 25.8426C101.499 25.7857 101.566 25.7406 101.64 25.71C101.715 25.6793 101.794 25.6638 101.875 25.6641H106.924C107.084 25.6641 107.238 25.728 107.352 25.8416C107.466 25.9552 107.53 26.1093 107.53 26.27V40.1034C107.532 40.1598 107.551 40.2143 107.585 40.2595C107.619 40.3048 107.665 40.3385 107.719 40.3563C107.773 40.3741 107.83 40.375 107.885 40.359C107.939 40.3429 107.987 40.3107 108.022 40.2666C109.239 38.6066 113.436 32.7247 114.109 31.7646C114.146 31.7107 114.195 31.6667 114.253 31.6363C114.311 31.6059 114.375 31.5901 114.441 31.5903H120.342C120.418 31.5884 120.493 31.6089 120.557 31.6492C120.622 31.6896 120.673 31.748 120.704 31.8172C120.739 31.8846 120.754 31.9608 120.747 32.0364C120.739 32.112 120.71 32.1839 120.663 32.2433L113.807 41.5144ZM240.449 42.942C240.036 42.3554 240.036 42.1424 240.479 41.5144L247.346 32.2433C247.392 32.1831 247.42 32.1115 247.427 32.0363C247.434 31.9611 247.421 31.8854 247.387 31.8176C247.354 31.7498 247.302 31.6927 247.238 31.6525C247.174 31.6124 247.101 31.5908 247.025 31.5903H241.113C241.047 31.5899 240.983 31.6056 240.925 31.636C240.867 31.6664 240.817 31.7106 240.781 31.7646C240.108 32.7247 235.911 38.6066 234.694 40.2666C234.659 40.3118 234.611 40.345 234.556 40.3617C234.502 40.3784 234.443 40.3777 234.389 40.3598C234.334 40.3419 234.287 40.3077 234.253 40.2618C234.219 40.2158 234.2 40.1605 234.199 40.1034V26.27C234.199 26.1904 234.183 26.1117 234.153 26.0381C234.122 25.9646 234.078 25.8978 234.021 25.8416C233.965 25.7853 233.898 25.7407 233.825 25.7102C233.751 25.6798 233.672 25.6641 233.593 25.6641H228.533C228.453 25.6641 228.374 25.6798 228.301 25.7102C228.227 25.7407 228.16 25.7853 228.104 25.8416C228.048 25.8978 228.003 25.9646 227.973 26.0381C227.942 26.1117 227.927 26.1904 227.927 26.27V52.6087C227.927 52.7161 227.971 52.8188 228.047 52.8945C228.123 52.9702 228.226 53.0126 228.333 53.0126H233.789C233.896 53.0119 233.999 52.9691 234.074 52.8935C234.15 52.8179 234.193 52.7156 234.193 52.6087V44.8178C234.198 44.7553 234.221 44.6956 234.259 44.6464C234.298 44.5971 234.35 44.5606 234.41 44.5415C234.469 44.5225 234.533 44.5217 234.593 44.5394C234.653 44.5571 234.707 44.5924 234.747 44.6407L241.066 52.8356C241.103 52.8913 241.153 52.937 241.212 52.9689C241.271 53.0007 241.336 53.0176 241.403 53.0182H247.448C247.523 53.019 247.596 52.9989 247.659 52.9603C247.723 52.9216 247.774 52.866 247.808 52.7996C247.843 52.7339 247.859 52.6594 247.854 52.5849C247.849 52.5104 247.822 52.439 247.778 52.3791L240.449 42.942ZM142.801 48.347L142.865 48.3618C142.966 48.3851 143.055 48.4457 143.113 48.5314C143.171 48.6171 143.194 48.7216 143.178 48.8239L142.677 52.4648C142.668 52.5559 142.628 52.6412 142.564 52.7062C142.499 52.7712 142.414 52.812 142.323 52.8217L142.227 52.8318C141.526 52.906 139.363 53.135 137.808 52.3957C137.071 52.0697 136.435 51.5507 135.968 50.8934C135.954 50.8709 135.936 50.8516 135.914 50.8365C135.892 50.8215 135.868 50.8111 135.842 50.8059C135.816 50.8007 135.789 50.8009 135.763 50.8064C135.737 50.8119 135.713 50.8227 135.692 50.838C134.9 51.408 131.45 53.6268 127.557 52.9075C126.424 52.7111 125.361 52.2219 124.475 51.4882C121.573 48.9982 121.38 43.6557 124.229 40.9942C124.944 40.3962 125.753 39.9195 126.622 39.5832C130.305 37.9868 135.312 38.2248 135.312 38.2248C135.368 37.2675 135.191 36.0446 132.806 35.8288C130.888 35.6175 127.344 36.2405 126.294 36.4252C126.203 36.4411 126.131 36.4538 126.08 36.4624C126.001 36.477 125.919 36.4756 125.841 36.4582C125.762 36.4408 125.687 36.4078 125.622 36.3611C125.556 36.3144 125.5 36.255 125.458 36.1864C125.415 36.1178 125.387 36.0414 125.375 35.9616L124.229 32.5559C124.216 32.4772 124.218 32.3966 124.236 32.3188C124.253 32.241 124.286 32.1674 124.333 32.1024C124.379 32.0373 124.438 31.9821 124.505 31.9398C124.573 31.8975 124.648 31.869 124.727 31.8559C125.817 31.6844 128.858 31.25 130.175 31.1089C136.913 30.309 138.976 32.5299 139.732 33.3435L139.733 33.3439C139.779 33.394 139.821 33.4388 139.858 33.4772C141.499 35.3142 141.609 37.9038 141.593 40.2361L141.549 46.3228C141.549 48.0616 142.143 48.197 142.801 48.347ZM134.969 46.8429C135.177 46.6298 135.295 46.344 135.296 46.0461V42.5103C135.296 42.139 134.292 42.2484 134.044 42.2755C134.014 42.2787 133.996 42.2807 133.99 42.2807C132.297 42.5103 131.096 42.8257 130.33 43.2241C129.356 43.7387 128.866 44.5162 128.866 45.5481C128.852 45.8994 128.92 46.2491 129.064 46.5697C129.208 46.8904 129.424 47.1733 129.696 47.3963C131.743 48.8571 134.305 47.5484 134.969 46.8429ZM177.014 48.3618L176.949 48.3469C176.294 48.1969 175.7 48.0611 175.7 46.3228L175.745 40.2361C175.761 37.9038 175.648 35.3142 174.01 33.4772C173.972 33.4382 173.929 33.3926 173.882 33.3415C173.122 32.5262 171.056 30.3096 164.327 31.1089C163.01 31.25 159.969 31.6844 158.879 31.8559C158.721 31.8836 158.58 31.9728 158.487 32.1039C158.394 32.235 158.357 32.3975 158.384 32.5559L159.529 35.9616C159.541 36.0414 159.57 36.1178 159.612 36.1864C159.655 36.255 159.71 36.3144 159.776 36.3611C159.842 36.4078 159.916 36.4408 159.995 36.4582C160.074 36.4756 160.155 36.477 160.235 36.4624L160.281 36.454C161.033 36.3166 164.917 35.6068 166.952 35.8233C169.337 36.0391 169.514 37.262 169.461 38.2192C169.461 38.2192 164.451 37.9813 160.769 39.5777C159.903 39.9151 159.098 40.3917 158.387 40.9887C155.54 43.6502 155.73 48.9927 158.633 51.4827C159.519 52.2163 160.581 52.7056 161.715 52.902C165.61 53.6213 169.058 51.4024 169.849 50.8325C169.87 50.8172 169.895 50.8064 169.921 50.8009C169.946 50.7953 169.973 50.7952 169.999 50.8004C170.025 50.8055 170.05 50.816 170.071 50.831C170.093 50.8461 170.111 50.8654 170.125 50.8878C170.592 51.5451 171.228 52.0642 171.965 52.3901C173.52 53.1294 175.683 52.9005 176.384 52.8263L176.481 52.8162C176.572 52.8065 176.656 52.7657 176.721 52.7007C176.785 52.6357 176.826 52.5504 176.835 52.4593L177.349 48.8239C177.365 48.7185 177.338 48.6112 177.276 48.525C177.213 48.4387 177.119 48.3802 177.014 48.3618ZM169.459 46.0461C169.457 46.344 169.34 46.6298 169.132 46.8429C168.465 47.5484 165.904 48.8571 163.859 47.3963C163.587 47.1732 163.371 46.8902 163.227 46.5696C163.083 46.249 163.015 45.8994 163.029 45.5481C163.029 44.5162 163.519 43.7387 164.495 43.2241C165.262 42.8257 166.46 42.5103 168.153 42.2807C168.158 42.2807 168.177 42.2787 168.206 42.2755C168.455 42.2484 169.461 42.1389 169.461 42.5103L169.459 46.0461ZM224.061 48.347C224.082 48.3519 224.104 48.3569 224.125 48.3618C224.226 48.3844 224.315 48.4437 224.374 48.5281C224.433 48.6125 224.459 48.716 224.446 48.8183L223.945 52.4593C223.936 52.5504 223.896 52.6357 223.832 52.7007C223.767 52.7657 223.682 52.8065 223.591 52.8162C223.563 52.8191 223.53 52.8226 223.493 52.8265C222.788 52.9009 220.627 53.1288 219.076 52.3901C218.338 52.0649 217.703 51.5457 217.236 50.8878C217.222 50.8657 217.204 50.8467 217.182 50.8318C217.16 50.817 217.136 50.8067 217.11 50.8016C217.084 50.7964 217.057 50.7965 217.032 50.8018C217.006 50.8071 216.981 50.8175 216.96 50.8325C216.168 51.4024 212.718 53.6213 208.826 52.902C207.692 52.7062 206.629 52.2169 205.744 51.4827C202.841 48.9927 202.648 43.6502 205.497 40.9887C206.209 40.3917 207.014 39.9151 207.879 39.5777C211.562 37.9813 216.57 38.2192 216.57 38.2192C216.622 37.262 216.448 36.0391 214.063 35.8233C212.017 35.6059 208.108 36.3227 207.382 36.4558L207.345 36.4624C207.266 36.4771 207.184 36.4757 207.105 36.4583C207.027 36.4409 206.952 36.4079 206.886 36.3613C206.82 36.3146 206.764 36.2552 206.721 36.1866C206.678 36.118 206.65 36.0415 206.637 35.9616L205.492 32.5559C205.466 32.3972 205.504 32.2347 205.597 32.1037C205.69 31.9727 205.831 31.8837 205.99 31.8559C207.077 31.6844 210.12 31.25 211.435 31.1089C218.173 30.309 220.236 32.5299 220.992 33.3435C221.039 33.3938 221.08 33.4387 221.118 33.4772C222.756 35.3142 222.869 37.9038 222.853 40.2361L222.808 46.3228C222.808 48.0616 223.403 48.197 224.061 48.347ZM216.24 46.8429C216.448 46.6298 216.565 46.344 216.567 46.0461V42.5103C216.567 42.139 215.563 42.2484 215.314 42.2755C215.285 42.2787 215.266 42.2807 215.261 42.2807C213.565 42.5103 212.367 42.8257 211.601 43.2241C210.624 43.7387 210.137 44.5162 210.137 45.5481C210.123 45.8994 210.191 46.2491 210.335 46.5697C210.479 46.8904 210.695 47.1733 210.967 47.3963C213.014 48.8571 215.574 47.5484 216.24 46.8429Z" fill="#303330"/>
</svg>
