<svg width="252" height="75" viewBox="0 0 252 75" fill="none" xmlns="http://www.w3.org/2000/svg">
<path d="M107.784 20.5055H112.428V42.8237H120.432V47.2291H107.804L107.784 20.5055Z" fill="#000083"/>
<path d="M131.185 27.2009C133.645 27.1702 135.978 28.2903 137.49 30.2284V27.5988H141.823V47.2679H137.49V44.6383C135.978 46.5763 133.645 47.6965 131.185 47.6657C125.784 47.6657 121.685 43.0565 121.685 37.4285C121.685 31.8004 125.784 27.2009 131.185 27.2009ZM131.973 31.1405C128.466 31.1405 126.143 33.8964 126.143 37.4285C126.143 40.9606 128.504 43.7261 131.973 43.7261C135.441 43.7261 137.801 40.9703 137.801 37.4285C137.801 33.8867 135.479 31.1405 131.973 31.1405Z" fill="#000083"/>
<path d="M145.194 43.8523L155.521 31.5288H145.349V27.5988H161.116V31.063L150.829 43.338H161.349V47.2679H145.194V43.8523Z" fill="#000083"/>
<path d="M172.365 27.2009C174.825 27.1702 177.158 28.2903 178.67 30.2284V27.5988H183.003V47.2679H178.67V44.6383C177.158 46.5763 174.825 47.6965 172.365 47.6657C166.964 47.6657 162.874 43.0565 162.874 37.4285C162.874 31.8004 166.964 27.2009 172.365 27.2009ZM173.152 31.1405C169.645 31.1405 167.324 33.8964 167.324 37.4285C167.324 40.9606 169.684 43.7261 173.152 43.7261C176.62 43.7261 178.981 40.9703 178.981 37.4285C178.981 33.8867 176.659 31.1405 173.152 31.1405Z" fill="#000083"/>
<path d="M195.38 27.2009C197.837 27.1687 200.167 28.2895 201.675 30.2284V18.9238H206.007V47.2679H201.675V44.6383C200.167 46.5772 197.837 47.698 195.38 47.6657C189.978 47.6657 185.879 43.0565 185.879 37.4285C185.879 31.8004 189.978 27.2009 195.38 27.2009ZM196.166 31.1405C192.659 31.1405 190.338 33.8964 190.338 37.4285C190.338 40.9606 192.708 43.7261 196.166 43.7261C199.625 43.7261 201.995 40.9703 201.995 37.4285C201.995 33.8867 199.673 31.1405 196.166 31.1405Z" fill="#000083"/>
<path d="M218.382 27.2009C220.84 27.1687 223.17 28.2895 224.677 30.2284V27.5988H229V47.2679H224.658V44.6383C223.15 46.5772 220.82 47.698 218.363 47.6657C212.962 47.6657 208.862 43.0565 208.862 37.4285C208.862 31.8004 212.981 27.2009 218.382 27.2009ZM219.17 31.1405C215.662 31.1405 213.34 33.8964 213.34 37.4285C213.34 40.9606 215.711 43.7261 219.17 43.7261C222.628 43.7261 224.998 40.9703 224.998 37.4285C224.998 33.8867 222.676 31.1405 219.17 31.1405Z" fill="#000083"/>
<path d="M57.0963 66.6578C56.6265 66.661 56.1641 66.5409 55.7553 66.3096C52.2555 64.287 26.3351 48.053 25.3562 47.5574C24.6113 47.2102 24.1026 46.4988 24.0153 45.6822V22.9118C23.996 22.0619 24.4167 21.262 25.1283 20.7955L25.316 20.6884C27.8236 19.1346 36.2178 14.018 37.5453 13.2813C37.85 13.1007 38.1969 13.0037 38.551 13C38.8831 13.0038 39.2094 13.0864 39.5032 13.2411C39.5032 13.2411 51.2498 20.8893 53.0466 21.5724C54.3074 22.151 55.6822 22.4393 57.0695 22.4162C58.6415 22.4491 60.1948 22.0704 61.575 21.3179C63.3316 20.3937 74.5553 13.2813 74.676 13.2813C74.9589 13.1106 75.2841 13.0224 75.6146 13.0268C75.9691 13.0285 76.3165 13.1257 76.6203 13.3081C78.149 14.1519 88.5547 20.5142 88.9972 20.7955C89.7291 21.2366 90.1727 22.0313 90.1638 22.885V45.6554C90.0817 46.474 89.5714 47.1876 88.8229 47.5306C87.844 48.0664 62.0041 64.3004 58.4372 66.2828C58.0311 66.5235 57.5685 66.6529 57.0963 66.6578Z" fill="url(#paint0_linear_161_246)"/>
<path d="M56.9619 66.658L57.096 66.6579C57.5658 66.6611 58.0282 66.541 58.4369 66.3096C61.9368 64.287 87.8437 48.0531 88.8227 47.5575C89.5711 47.2145 90.0815 46.5008 90.1635 45.6823V22.9119C90.1679 22.5264 90.0806 22.1454 89.9088 21.8002L56.9619 39.8691V66.658Z" fill="url(#paint1_linear_161_246)"/>
<path d="M56.8477 66.3369L56.715 66.3368C56.2502 66.34 55.7927 66.2211 55.3884 65.9922C51.9258 63.9912 26.2948 47.9302 25.3263 47.4399C24.5858 47.1005 24.0809 46.3945 23.9997 45.5846V23.0568C23.9955 22.6755 24.0818 22.2985 24.2518 21.957L56.8477 39.8334V66.3369Z" fill="url(#paint2_linear_161_246)"/>
<defs>
<linearGradient id="paint0_linear_161_246" x1="23.9745" y1="13.4903" x2="89.5156" y2="12.9821" gradientUnits="userSpaceOnUse">
<stop offset="1e-07" stop-color="#FF9200"/>
<stop offset="0.337553" stop-color="#F36D00"/>
<stop offset="0.56729" stop-color="#F83C72"/>
<stop offset="0.78" stop-color="#FC1CBE"/>
<stop offset="0.93" stop-color="#FE08ED"/>
<stop offset="1" stop-color="#FF00FF"/>
</linearGradient>
<linearGradient id="paint1_linear_161_246" x1="42.3866" y1="61.0584" x2="109.174" y2="24.0374" gradientUnits="userSpaceOnUse">
<stop stop-color="#EE0A3F"/>
<stop offset="1" stop-color="#EE0A3F" stop-opacity="0"/>
</linearGradient>
<linearGradient id="paint2_linear_161_246" x1="48.8898" y1="51.4271" x2="16.6283" y2="25.4095" gradientUnits="userSpaceOnUse">
<stop stop-color="#ED6600"/>
<stop offset="1" stop-color="#F98200"/>
</linearGradient>
</defs>
</svg>
