<svg width="252" height="75" viewBox="0 0 252 75" fill="none" xmlns="http://www.w3.org/2000/svg">
<path d="M64.2432 48.5488C63.9649 50.9512 62.5137 52.8964 60.2662 53.8581C59.0068 54.3909 57.3249 54.6829 55.9759 54.5961C53.9004 54.5093 51.9548 53.9933 50.1388 53.077C49.5106 52.7299 48.5425 52.0793 47.804 51.4718C47.6219 51.2981 47.5914 51.2113 47.7234 51.0317C47.7815 50.9264 47.9111 50.7337 48.177 50.3435C48.5823 49.7683 48.6257 49.6923 48.6688 49.6186C48.7985 49.4319 48.996 49.4149 49.2025 49.5624C49.2308 49.5913 49.2308 49.5913 49.2464 49.6053C49.274 49.6356 49.274 49.6356 49.348 49.6922C49.4245 49.751 49.4799 49.779 49.4935 49.8122C51.4395 51.3411 53.7047 52.209 55.9915 52.2958C59.1657 52.2529 61.4467 50.8206 61.8669 48.6071C62.2996 46.1981 60.4079 44.0952 56.7086 42.9225C55.5432 42.5755 52.6103 41.3998 52.0688 41.0727C49.5335 39.5823 48.3435 37.6261 48.5165 35.2002C48.776 31.8475 51.8794 29.3521 55.8018 29.3303C57.5428 29.3303 59.2977 29.6945 60.9627 30.3974C61.5631 30.6538 62.6348 31.2364 62.9913 31.515C63.2052 31.6741 63.2508 31.8475 63.1189 32.0418C63.075 32.1604 62.9459 32.337 62.723 32.7156C62.398 33.213 62.3859 33.2337 62.327 33.3431C62.2113 33.5257 62.0459 33.5403 61.8256 33.4096C60.0461 32.1949 58.0389 31.5871 55.8459 31.5437C53.1219 31.5871 51.0738 33.2165 50.9419 35.4493C50.9147 37.4549 52.4072 38.916 55.6394 40.0162C62.2133 42.1418 64.7209 44.625 64.2432 48.5488ZM56.137 13.938C60.4081 13.938 63.8974 18.0052 64.0702 23.1039H48.214C48.3665 18.0052 51.866 13.938 56.137 13.938ZM78.2742 24.0699C78.2742 23.5378 77.8638 23.1039 77.3401 23.1039H77.3059H67.0557C66.7964 16.3769 62.0018 11 56.137 11C50.2686 11 45.4865 16.3769 45.2307 23.1039H34.9376C34.4213 23.1157 34.0117 23.54 34.0117 24.0699C34.0117 24.1005 34.0117 24.114 34.0117 24.1446H34L35.462 56.5921C35.462 56.6798 35.4791 56.7683 35.4791 56.8738C35.4791 56.8944 35.4819 56.9007 35.4819 56.9394V56.989L35.4927 57.0062C35.7127 59.2684 37.3412 61.0719 39.5668 61.1602V61.1774H72.2159C72.233 61.1774 72.243 61.1774 72.26 61.1774C72.2853 61.1774 72.2853 61.1774 72.3039 61.1774H72.3716V61.1602C74.6288 61.1051 76.477 59.2684 76.6531 56.9814L76.663 56.9394C76.663 56.9179 76.663 56.8945 76.663 56.8738C76.663 56.8077 76.6801 56.7657 76.6801 56.697L78.2742 24.114C78.2742 24.102 78.2742 24.0835 78.2742 24.0699Z" fill="#EE4D2D"/>
<path d="M202.574 43.0181C203.323 40.6474 205.447 39.1338 207.946 39.1338C210.395 39.1338 212.691 40.7689 213.441 43.0181L213.563 43.1455H202.552L202.574 43.0181ZM215.942 46.3932C215.976 46.3932 215.976 46.3932 216.03 46.3932C216.065 46.3932 216.065 46.3932 216.065 46.3932C216.565 46.3829 217 45.8934 217 45.3926C217 45.3272 216.998 45.2706 216.993 45.2657C216.995 45.2657 216.995 45.2657 216.995 45.2082C216.995 40.0197 212.941 35.9003 207.945 35.9003C202.962 35.9003 198.952 40.0197 198.952 45.2082C198.952 45.6071 198.952 46.0022 199.024 46.3918L199.03 46.3932L199.064 46.5064C199.31 48.3334 200.076 50.0129 201.325 51.3893C202.7 52.9311 204.573 54.0099 206.696 54.3872H206.821C206.946 54.3872 206.964 54.3872 207.071 54.4133C209.819 54.7596 212.297 54.3872 214.316 53.3379C214.816 53.0722 215.316 52.7608 215.689 52.5109C215.815 52.3885 215.939 52.2728 216.065 52.2414C216.065 52.1385 216.129 52.1386 216.18 52.1386C216.598 51.6388 216.669 51.4808 216.343 51.012C216.065 50.5122 215.814 50.1403 215.565 49.763C215.44 49.6405 215.42 49.5131 215.316 49.4619C215.316 49.3906 215.316 49.3906 215.314 49.3906C215.302 49.3906 215.302 49.3906 215.287 49.3906H215.281C215.02 49.0133 214.816 49.0133 214.566 49.2632C214.553 49.2632 214.44 49.3906 214.438 49.3906C212.441 51.1394 209.693 51.7307 206.997 51.1394C206.487 51.012 206.058 50.8585 205.572 50.6396C203.919 49.763 202.7 48.2641 202.324 46.5152V46.3928L215.942 46.3932ZM181.092 43.0181C181.841 40.6474 183.961 39.1338 186.476 39.1338C188.939 39.1338 191.206 40.7689 191.973 43.0181L192.083 43.1455H181.092V43.0181ZM194.482 46.3932C194.52 46.3932 194.52 46.3932 194.574 46.3932C194.581 46.3932 194.581 46.3932 194.581 46.3932C195.081 46.3829 195.544 45.8934 195.544 45.3926C195.544 45.3272 195.542 45.2706 195.537 45.2657C195.538 45.2657 195.538 45.2657 195.538 45.2082C195.538 40.0197 191.457 35.9003 186.47 35.9003C181.506 35.9003 177.466 40.0197 177.466 45.2082C177.466 45.6071 177.466 46.0022 177.568 46.3918L177.575 46.3932L177.595 46.5064C177.845 48.3334 178.594 50.0129 179.843 51.3893C181.213 52.9311 183.091 54.0099 185.21 54.3872H185.34C185.46 54.3872 185.508 54.3872 185.588 54.4133C188.336 54.7596 190.834 54.3872 192.833 53.3379C193.335 53.0722 193.832 52.7608 194.206 52.5109C194.332 52.3885 194.456 52.2728 194.581 52.2414C194.581 52.1385 194.673 52.1386 194.705 52.1386C195.141 51.6388 195.204 51.4808 194.886 51.012C194.581 50.5122 194.332 50.1403 194.082 49.763C193.957 49.6405 193.955 49.5131 193.832 49.4619C193.832 49.3906 193.832 49.3906 193.832 49.3906C193.832 49.3906 193.832 49.3906 193.83 49.3906H193.825C193.564 49.0133 193.332 49.0133 193.082 49.2632L192.955 49.3906C190.956 51.1394 188.209 51.7307 185.541 51.1394C185.03 51.012 184.588 50.8585 184.09 50.6396C182.46 49.763 181.213 48.2641 180.845 46.5152L180.842 46.3928L194.482 46.3932ZM164.725 51.5118C161.356 51.5118 158.608 48.8903 158.51 45.5156V45.2042C158.608 41.8965 161.356 39.2203 164.725 39.2203C168.102 39.2203 170.885 41.9816 170.885 45.3941C170.885 48.7639 168.102 51.5118 164.725 51.5118ZM164.725 35.9352C162.488 35.9352 160.399 36.6854 158.725 38.0623L158.51 38.265V36.5221C158.51 36.0223 158.443 35.9352 157.955 35.9352H155.815C155.331 35.9352 155.245 36.0228 155.245 36.5221V63.9529C155.245 64.3789 155.331 64.5029 155.815 64.5029H157.955C158.433 64.5029 158.51 64.3789 158.51 63.9529V52.5109L158.725 52.6384C160.4 54.0099 162.488 54.7596 164.725 54.7596C169.97 54.7596 174.217 50.5604 174.217 45.3941C174.217 40.1476 169.97 35.9352 164.725 35.9352ZM142.464 51.2718C139.026 51.2718 136.279 48.5701 136.279 45.2092C136.279 41.8492 139.027 39.1465 142.464 39.1465C145.896 39.1465 148.648 41.8492 148.648 45.2092C148.648 48.5696 145.896 51.2718 142.464 51.2718ZM142.464 35.9003C137.217 35.9003 132.97 40.0197 132.97 45.221C132.97 50.3902 137.217 54.5107 142.464 54.5107C147.71 54.5107 151.96 50.3902 151.96 45.221C151.96 40.0197 147.71 35.9003 142.464 35.9003ZM121.292 36.0764C119.407 36.0764 117.543 36.678 115.996 37.8346L115.81 37.9925V25.2509C115.81 24.782 115.671 24.6581 115.252 24.6581H112.986C112.547 24.6581 112.423 24.782 112.423 25.2509V54.2618C112.423 54.7596 112.548 54.887 112.986 54.887H115.252C115.671 54.887 115.81 54.7379 115.81 54.2618V44.7669C115.858 41.7907 118.293 39.3984 121.292 39.3984C124.346 39.3984 126.786 41.8202 126.786 44.8196V54.2618C126.786 54.7596 126.873 54.887 127.35 54.887H129.598C130.098 54.887 130.159 54.7596 130.159 54.2618V44.7659C130.159 40.0197 126.162 36.0764 121.292 36.0764ZM89.8121 49.6007L89.8067 49.6208C89.4707 50.0926 89.3212 50.2628 89.2543 50.3897C89.0034 50.7621 89.0432 50.9564 89.4377 51.2614C90.3173 52.0107 91.5009 52.7604 92.2826 53.1372C94.4683 54.2588 96.8128 54.7596 99.3192 54.8835C100.932 54.9017 102.991 54.5097 104.491 53.8869C107.238 52.6379 108.984 50.2623 109.281 47.3574C109.768 42.6063 106.677 39.6478 98.7299 37.2605L98.7245 37.259C94.9991 36.0223 93.2537 34.4181 93.2532 32.2408C93.3742 29.7781 95.6484 27.9053 98.7294 27.7986C101.181 27.8138 103.367 28.5178 105.53 29.9046C105.989 30.155 106.177 30.0974 106.49 29.6719C106.534 29.6552 106.615 29.5282 107.044 28.905H107.047C107.425 28.4012 107.55 28.1553 107.551 28.1553C107.813 27.6554 107.8 27.4513 107.314 27.1561C106.864 26.7803 105.585 26.157 104.864 25.8456C102.804 25.032 100.681 24.6581 98.5971 24.6581C93.8106 24.782 90.0659 27.9058 89.8165 31.982C89.6867 34.9016 91.1846 37.2718 94.3089 39.0206C95.184 39.5204 98.3708 40.7321 99.8692 41.1473C104.116 42.3963 106.359 44.6729 105.873 47.3924C105.485 49.887 102.896 51.5118 99.3001 51.6274C96.681 51.5118 94.028 50.5914 91.7489 48.8908C91.7385 48.8893 91.682 48.7821 91.5619 48.7634C91.4178 48.6409 91.4178 48.6409 91.3765 48.633C90.9347 48.2636 90.6327 48.2705 90.3744 48.7634C90.3163 48.7639 89.9779 49.3129 89.8121 49.6007Z" fill="#EE4D2D"/>
</svg>
