<svg width="252" height="75" viewBox="0 0 252 75" fill="none" xmlns="http://www.w3.org/2000/svg">
<g clip-path="url(#clip0_109_5)">
<mask id="mask0_109_5" style="mask-type:luminance" maskUnits="userSpaceOnUse" x="21" y="14" width="208" height="53">
<path d="M229 14.0612H21.0654V66.7682H229V14.0612Z" fill="white"/>
</mask>
<g mask="url(#mask0_109_5)">
<path d="M218.006 45.1987C218.913 46.0305 220.111 46.4788 221.344 46.4486C221.977 46.4747 222.608 46.3695 223.198 46.1399C223.787 45.9103 224.322 45.5612 224.769 45.1148C225.215 44.6685 225.563 44.1347 225.791 43.5473C226.018 42.96 226.12 42.332 226.09 41.7033C226.113 41.0529 226.002 40.4047 225.765 39.7982C225.528 39.1916 225.169 38.6392 224.711 38.1748C224.278 37.7315 223.759 37.3811 223.184 37.1452C222.61 36.9093 221.993 36.7929 221.372 36.8032C220.725 36.7847 220.082 36.8997 219.482 37.141C218.882 37.3823 218.339 37.7447 217.887 38.2052C217.436 38.6657 217.085 39.2143 216.857 39.8164C216.63 40.4186 216.53 41.061 216.565 41.7033C216.531 42.3556 216.642 43.0072 216.891 43.6116C217.141 44.2159 217.521 44.7579 218.006 45.1987ZM216.532 34.331V36.6096C217.505 34.9836 219.547 34.0213 221.65 34.0213C222.62 34.0041 223.583 34.1835 224.48 34.5487C225.377 34.9139 226.19 35.457 226.869 36.145C227.585 36.8738 228.144 37.7402 228.512 38.6912C228.879 39.6423 229.047 40.6578 229.006 41.6757C229.044 42.6832 228.874 43.6877 228.506 44.6275C228.139 45.5672 227.582 46.4222 226.869 47.14C226.19 47.8257 225.377 48.3652 224.479 48.7248C223.581 49.0845 222.618 49.2566 221.65 49.2305C219.514 49.2305 217.444 48.3567 216.532 46.7307V56.0056H213.672V34.331H216.532ZM207.034 38.1139C206.578 37.6814 206.04 37.3428 205.452 37.1179C204.864 36.8929 204.237 36.7859 203.607 36.8032C202.327 36.7737 201.086 37.2443 200.151 38.1139C199.691 38.5644 199.33 39.1056 199.093 39.7028C198.855 40.3 198.746 40.94 198.772 41.5817C198.746 42.2374 198.855 42.8914 199.092 43.5038C199.33 44.1162 199.69 44.6741 200.151 45.1434C200.608 45.5848 201.149 45.931 201.743 46.1618C202.336 46.3926 202.97 46.5033 203.607 46.4873C204.24 46.5059 204.87 46.3963 205.459 46.1652C206.048 45.9342 206.584 45.5866 207.034 45.1434C207.506 44.6813 207.875 44.1262 208.119 43.5138C208.362 42.9014 208.474 42.2451 208.447 41.5872C208.474 40.9424 208.362 40.2994 208.118 39.7013C207.874 39.1032 207.505 38.5639 207.034 38.1195V38.1139ZM198.132 36.1119C199.63 34.7652 201.578 34.0196 203.598 34.0196C205.618 34.0196 207.566 34.7652 209.065 36.1119C209.802 36.8159 210.38 37.6665 210.764 38.608C211.147 39.5496 211.327 40.561 211.29 41.5761C211.326 42.6045 211.142 43.6287 210.752 44.5817C210.362 45.5347 209.774 46.3952 209.026 47.1068C207.549 48.4729 205.607 49.2323 203.59 49.2323C201.573 49.2323 199.631 48.4729 198.154 47.1068C197.414 46.3916 196.833 45.5296 196.449 44.5768C196.066 43.6239 195.888 42.6016 195.928 41.5761C195.89 40.5607 196.068 39.5487 196.452 38.6068C196.836 37.6649 197.416 36.8146 198.154 36.1119H198.132ZM183.048 48.8987H180.188V26.389H183.048V36.51C183.472 35.6752 184.185 35.021 185.057 34.6684C185.941 34.2506 186.904 34.0261 187.883 34.0102C191.555 34.0102 193.853 36.3829 193.82 40.4755V48.8987H190.96V40.6746C190.96 38.302 189.547 36.8032 187.505 36.8032C186.375 36.7869 185.275 37.1624 184.394 37.8651C183.482 38.5509 183.042 39.6127 183.042 41.0507V48.8987H183.048ZM165.739 42.6988C165.765 43.2107 165.899 43.7114 166.132 44.1687C166.364 44.6259 166.691 45.0296 167.091 45.3536C168.003 46.1414 169.182 46.5547 170.39 46.5095C173 46.5095 174.474 45.1379 174.758 43.357C174.914 41.2332 173.345 40.0386 171.08 39.5187L168.298 38.8329C164.782 37.9259 163.023 36.0529 163.023 33.2138C163.004 32.3793 163.182 31.5519 163.542 30.7979C163.903 30.044 164.436 29.3844 165.099 28.8722C166.478 27.7211 168.234 27.1113 170.034 27.1577C171.865 27.0941 173.653 27.718 175.042 28.9054C175.693 29.4698 176.209 30.1721 176.552 30.9607C176.895 31.7493 177.055 32.6042 177.022 33.4627H174.101C174.101 31.3389 172.432 29.9341 170.017 29.9341C168.99 29.9181 167.986 30.2367 167.157 30.8412C166.782 31.1049 166.476 31.4558 166.268 31.8635C166.059 32.2712 165.954 32.7233 165.961 33.1806C165.961 34.6794 166.996 35.6805 169.038 36.1782L171.865 36.864C175.976 37.8927 178.052 40.2377 177.645 43.6114C177.56 44.3952 177.319 45.1543 176.937 45.8453C176.555 46.5363 176.039 47.1454 175.42 47.6377C173.996 48.7465 172.219 49.3116 170.412 49.2305C168.429 49.2928 166.497 48.6004 165.01 47.2948C164.335 46.7318 163.791 46.0296 163.417 45.237C163.042 44.4443 162.845 43.5802 162.84 42.7044H165.761L165.739 42.6988Z" fill="black"/>
<path d="M33.4009 32.0303V30.6918C32.9511 30.6283 32.4976 30.595 32.0433 30.5923C29.9055 30.5902 27.8227 31.2664 26.0982 32.5223C24.3737 33.7782 23.0973 35.5484 22.4549 37.5752C21.8125 39.602 21.8375 41.7798 22.5263 43.7915C23.2151 45.8032 24.5317 47.544 26.2846 48.7605L26.1455 48.6111C24.5184 46.7805 23.6288 44.417 23.6473 41.9743C23.6395 39.38 24.6564 36.8862 26.4795 35.0296C28.3025 33.173 30.7859 32.1019 33.3953 32.0469L33.4009 32.0303Z" fill="#25F4EE"/>
<path d="M49.6919 27.8435V26.5494C48.2237 26.5505 46.7869 26.1257 45.5579 25.3271C46.6285 26.5864 48.0777 27.4704 49.6919 27.8491V27.8435ZM33.64 46.5537C34.8335 46.5449 35.9781 46.081 36.8375 45.2577C37.6968 44.4343 38.2053 43.3144 38.2581 42.1292V20.4214H42.2196V20.3716C42.1344 19.9175 42.0916 19.4565 42.0916 18.9945H36.6334V40.741C36.6069 41.5113 36.3839 42.2623 35.9855 42.9236C35.5871 43.5849 35.0263 44.1348 34.3557 44.5217C33.6851 44.9086 32.9266 45.1199 32.1513 45.1358C31.376 45.1517 30.6094 44.9716 29.9233 44.6124C30.345 45.2057 30.9023 45.691 31.5494 46.0285C32.1965 46.3659 32.9149 46.5459 33.6456 46.5537H33.64Z" fill="#25F4EE"/>
<path d="M32.0376 35.9736C31.0046 35.97 30.0004 36.312 29.1867 36.9445C28.373 37.5771 27.797 38.4634 27.5516 39.4609C27.3062 40.4583 27.4056 41.5088 27.8338 42.4433C28.262 43.3778 28.9941 44.1418 29.9122 44.6125C29.3411 43.8423 29.0365 42.9089 29.0442 41.9522C29.0394 41.2367 29.2051 40.5301 29.5276 39.8904C29.8502 39.2507 30.3204 38.6959 30.9 38.2714C31.4795 37.8469 32.1519 37.5647 32.8621 37.448C33.5723 37.3312 34.3003 37.3832 34.9864 37.5996V32.069C34.5385 32.0056 34.0868 31.9723 33.6344 31.9694H33.3618V36.1782C32.9369 36.0469 32.4936 35.9834 32.0487 35.9902L32.0376 35.9736ZM45.5468 25.3271C44.3219 23.9681 43.6547 22.2017 43.6773 20.3772H42.175C42.3718 21.3851 42.7713 22.3431 43.3498 23.1937C43.9282 24.0443 44.6736 24.77 45.5412 25.3271H45.5468Z" fill="#FE2C55"/>
<path d="M49.6923 27.7606H49.6644V31.9417C46.927 31.9625 44.2564 31.1009 42.053 29.4861V40.6027C42.053 43.243 40.9979 45.7751 39.1197 47.6421C37.2415 49.509 34.6941 50.5579 32.038 50.5579C29.9783 50.589 27.9619 49.9693 26.2793 48.7881C27.2018 49.8133 28.336 50.6286 29.6045 51.1783C30.8729 51.7281 32.2457 51.9994 33.6292 51.9737C36.2933 51.9708 38.8475 50.9175 40.7313 49.045C42.6151 47.1724 43.6747 44.6335 43.6777 41.9854V30.9241C45.8805 32.5246 48.544 33.3761 51.2724 33.352V27.9265C50.7377 27.926 50.2044 27.8704 49.6811 27.7606H49.6923Z" fill="#FE2C55"/>
<path d="M76.1482 32.5059C76.7529 32.5088 77.3399 32.3028 77.8088 31.9232C78.2776 31.5436 78.5993 31.0139 78.7188 30.4247C78.8383 29.8354 78.7483 29.2232 78.464 28.6927C78.1797 28.1621 77.7189 27.7462 77.1603 27.516C76.6017 27.2857 75.98 27.2555 75.4014 27.4304C74.8229 27.6053 74.3234 27.9746 73.9884 28.475C73.6534 28.9754 73.5036 29.576 73.5647 30.174C73.6258 30.772 73.8939 31.3304 74.3232 31.7537C74.5606 31.995 74.8447 32.1861 75.1583 32.3154C75.472 32.4446 75.8087 32.5094 76.1482 32.5059ZM135.682 27.2573H140.857V37.3175L145.986 32.3123H152.168L145.675 38.573L152.925 48.8987H147.211L142.359 41.7089L140.823 43.1911V48.8987H135.649V27.2573H135.682ZM80.8163 27.2573H85.9964V37.3175L91.1263 32.3123H97.3078L90.7924 38.573L98.0645 48.8987H92.3559L87.5042 41.7089L85.9685 43.1911V48.8987H80.7941V27.2573H80.8163ZM73.5833 34.1872H78.7688V48.8987H73.6222L73.5888 34.1706L73.5833 34.1872ZM99.0549 27.3292H115.596L114.111 31.9307H109.554V48.8987H104.318V31.9141H99.0604V27.3292H99.0549ZM56.4019 27.3292H72.5706L71.085 31.9307H66.8899V48.8987H61.6598V31.9141H56.4019V27.3292ZM42.097 40.6027V29.5414C44.2997 31.1423 46.9633 31.9938 49.6918 31.9694V27.755C48.08 27.4231 46.6254 26.5669 45.5578 25.3216C44.681 24.7779 43.9301 24.0556 43.3547 23.2024C42.7793 22.3492 42.3923 21.3844 42.2194 20.3716H38.219V42.1181C38.1744 43.2964 37.6727 44.4117 36.819 45.2304C35.9654 46.049 34.8261 46.5074 33.6399 46.5094C32.9085 46.5295 32.1838 46.3656 31.5331 46.033C30.8824 45.7004 30.3267 45.2099 29.9176 44.6069C29.0143 44.1312 28.2965 43.3694 27.8782 42.4421C27.4598 41.5149 27.3648 40.4755 27.6083 39.4885C27.8517 38.5015 28.4196 37.6236 29.222 36.9939C30.0243 36.3642 31.0152 36.0187 32.0375 36.0123C32.4981 36.0132 32.9559 36.0841 33.3951 36.2225V31.9694C31.4537 32.0018 29.5636 32.5945 27.955 33.6754C26.3463 34.7562 25.0884 36.2785 24.3344 38.0571C23.5803 39.8357 23.3627 41.7938 23.7079 43.6931C24.0531 45.5924 24.9463 47.351 26.2788 48.7549C27.9586 49.9455 29.9745 50.5767 32.0375 50.5579C34.7016 50.555 37.2557 49.5017 39.1395 47.6291C41.0233 45.7566 42.083 43.2177 42.0859 40.5695L42.097 40.6027Z" fill="black"/>
<path d="M114.94 40.0994C114.939 37.8807 115.78 35.7432 117.295 34.114C118.811 32.4849 120.888 31.4839 123.114 31.3112C122.854 31.2928 122.594 31.2836 122.335 31.2836C119.983 31.2836 117.727 32.2124 116.063 33.8657C114.4 35.519 113.466 37.7613 113.466 40.0994C113.466 42.4375 114.4 44.6799 116.063 46.3332C117.727 47.9864 119.983 48.9153 122.335 48.9153C122.568 48.9153 122.891 48.9153 123.114 48.8876C120.889 48.7136 118.812 47.7123 117.297 46.0834C115.782 44.4545 114.94 42.3178 114.94 40.0994Z" fill="#25F4EE"/>
<path d="M125.122 31.2836C124.888 31.2836 124.566 31.2836 124.337 31.3113C126.554 31.4948 128.621 32.4999 130.128 34.1272C131.634 35.7546 132.47 37.8852 132.47 40.0967C132.47 42.3081 131.634 44.4388 130.128 46.0661C128.621 47.6935 126.554 48.6985 124.337 48.8821C124.571 48.8821 124.894 48.9098 125.122 48.9098C127.474 48.9098 129.73 47.9809 131.393 46.3276C133.056 44.6743 133.991 42.432 133.991 40.0939C133.991 37.7558 133.056 35.5135 131.393 33.8602C129.73 32.2069 127.474 31.2781 125.122 31.2781V31.2836Z" fill="#FE2C55"/>
<path d="M123.726 44.3857C122.656 44.3811 121.626 43.9814 120.837 43.2644C120.047 42.5474 119.553 41.5641 119.452 40.5057C119.351 39.4472 119.649 38.3891 120.288 37.5368C120.928 36.6846 121.863 36.099 122.912 35.8938C123.962 35.6886 125.051 35.8785 125.967 36.4266C126.884 36.9747 127.563 37.8418 127.872 38.8596C128.182 39.8774 128.099 40.9731 127.642 41.934C127.184 42.895 126.383 43.6525 125.395 44.0594C124.866 44.2783 124.298 44.3892 123.726 44.3857ZM123.726 31.2836C121.524 31.2847 119.401 32.0998 117.771 33.5704C116.14 35.0409 115.118 37.0618 114.904 39.2399C114.689 41.418 115.297 43.5976 116.609 45.3547C117.922 47.1119 119.845 48.321 122.005 48.7468C124.164 49.1726 126.406 48.7848 128.294 47.6586C130.182 46.5325 131.581 44.7486 132.219 42.654C132.857 40.5593 132.688 38.3037 131.746 36.3258C130.803 34.3479 129.154 32.7892 127.12 31.9528C126.044 31.5083 124.89 31.2808 123.726 31.2836Z" fill="black"/>
</g>
</g>
<defs>
<clipPath id="clip0_109_5">
<rect width="207" height="37" fill="white" transform="translate(22 19)"/>
</clipPath>
</defs>
</svg>
