<svg width="252" height="75" viewBox="0 0 252 75" fill="none" xmlns="http://www.w3.org/2000/svg">
<path fill-rule="evenodd" clip-rule="evenodd" d="M61.5231 23.2596C64.0166 22.0128 67.0439 21.3322 69.8096 21.0957L72.9229 20.8234C76.3299 20.5297 79.7405 20.7088 83.1511 20.7088H85.0248V22.5789C85.0248 30.8869 85.0248 39.1948 85.0248 47.5064V48.4594C85.0248 57.036 78.0101 64.0507 69.4299 64.0507H38V20.7088H39.8701C43.2879 20.7088 46.6841 20.4867 50.1019 20.7482L53.2116 20.9846C56.1672 21.2068 58.872 21.9233 61.5231 23.2596Z" fill="#4D4C4B"/>
<path fill-rule="evenodd" clip-rule="evenodd" d="M39.8701 22.5788V43.9309V47.5063V48.4592V62.1805H53.5914H55.7445H69.4299C76.9784 62.1805 83.1511 56.0041 83.1511 48.4592V47.5063C83.1511 39.2449 83.1511 31.1877 83.1511 22.5788C79.8731 22.5788 76.4087 22.5 73.0841 22.6862L69.9709 22.9549C66.9257 23.3275 63.8447 24.0369 61.5124 25.3839C58.9903 23.9294 56.2425 23.2057 53.0683 22.8475L49.9586 22.611C46.5659 22.4534 43.0873 22.5788 39.8701 22.5788Z" fill="#5FB74E"/>
<path fill-rule="evenodd" clip-rule="evenodd" d="M43.7529 62.1806H53.5907H55.7438H69.4292C72.7753 62.1806 75.8456 60.9661 78.2316 58.9634C75.4443 52.4897 69.0065 47.9578 61.5117 47.9578C52.824 47.9578 45.5621 54.041 43.7529 62.1806Z" fill="#89C45F"/>
<path fill-rule="evenodd" clip-rule="evenodd" d="M61.5127 62.1806L69.5914 62.0588C72.8909 62.0588 75.8931 60.898 78.2325 58.9634C81.2455 56.4771 83.1514 52.7083 83.1514 48.4593V47.5064C83.1514 39.245 83.1514 31.1878 83.1514 22.5789C79.8734 22.5789 76.409 22.5001 73.0844 22.6864L69.9711 22.955C66.926 23.3276 63.8449 24.037 61.5127 25.384V62.1806Z" fill="#4A9E4B"/>
<path fill-rule="evenodd" clip-rule="evenodd" d="M61.5127 62.1806H69.4803C72.8264 62.1806 75.8465 60.9697 78.2325 58.9634C75.4775 52.5614 68.9 48.0581 61.5127 47.9578V62.1806Z" fill="#5FB74E"/>
<path fill-rule="evenodd" clip-rule="evenodd" d="M73.0845 21.393C72.4898 15.5499 67.553 11 61.5629 11C55.5693 11 50.6361 15.5105 49.959 21.3178L53.0687 21.5578C53.6204 17.3626 57.1958 14.1204 61.5486 14.1204C65.9014 14.1204 69.5091 17.4164 69.9712 21.6581L73.0845 21.393Z" fill="#4D4C4B"/>
<path fill-rule="evenodd" clip-rule="evenodd" d="M66.571 49.7813C65.2168 51.2143 63.8626 52.6509 62.5084 54.0839L61.5124 55.1408L60.5164 54.0839C59.1587 52.6509 57.8044 51.2143 56.4502 49.7813L55.748 49.0361L56.2604 48.1512C57.3495 46.2775 59.3808 45.2708 61.5124 45.2708C63.6404 45.2708 65.6718 46.2775 66.7609 48.1512L67.2732 49.0361L66.571 49.7813Z" fill="#4D4C4B"/>
<path fill-rule="evenodd" clip-rule="evenodd" d="M65.5742 48.8426C64.2199 50.2757 62.8657 51.7087 61.5115 53.1453C60.1573 51.7087 58.7995 50.2757 57.4453 48.8426C58.3015 47.3666 59.9065 46.6358 61.5115 46.6394C63.1129 46.6358 64.7179 47.3666 65.5742 48.8426Z" fill="#FDF8B4"/>
<path fill-rule="evenodd" clip-rule="evenodd" d="M65.5753 48.8426C64.2211 50.2757 62.8669 51.7087 61.5127 53.1453V46.6394C63.1141 46.6358 64.7191 47.3666 65.5753 48.8426Z" fill="#FCD066"/>
<path fill-rule="evenodd" clip-rule="evenodd" d="M51.3556 27.9778C57.428 27.9778 62.3505 32.9038 62.3505 38.9727C62.3505 45.0416 57.428 49.9676 51.3556 49.9676C45.2831 49.9676 40.3643 45.0416 40.3643 38.9727C40.3643 32.9038 45.2831 27.9778 51.3556 27.9778Z" fill="#4D4C4B"/>
<path fill-rule="evenodd" clip-rule="evenodd" d="M51.3553 29.8478C56.3924 29.8478 60.4801 33.9355 60.4801 38.9726C60.4801 44.0097 56.3924 48.0939 51.3553 48.0939C46.3146 48.0939 42.2305 44.0097 42.2305 38.9726C42.2305 33.9355 46.3146 29.8478 51.3553 29.8478Z" fill="#EEEFEE"/>
<path fill-rule="evenodd" clip-rule="evenodd" d="M51.3567 29.8478C55.5161 29.8478 59.0234 32.6315 60.1233 36.4362C59.0234 40.2409 55.5161 43.0245 51.3567 43.0245C47.1973 43.0245 43.69 40.2409 42.5938 36.4362C43.69 32.6315 47.1973 29.8478 51.3567 29.8478Z" fill="#FEFEFE"/>
<path fill-rule="evenodd" clip-rule="evenodd" d="M71.6648 27.9778C77.7373 27.9778 82.6597 32.9038 82.6597 38.9727C82.6597 45.0416 77.7373 49.9676 71.6648 49.9676C65.596 49.9676 60.6699 45.0451 60.6699 38.9727C60.6699 32.9038 65.596 27.9778 71.6648 27.9778Z" fill="#4D4C4B"/>
<path fill-rule="evenodd" clip-rule="evenodd" d="M71.6652 29.8478C76.7058 29.8478 80.79 33.9355 80.79 38.9726C80.79 44.0097 76.7058 48.0939 71.6652 48.0939C66.6281 48.0939 62.5439 44.0097 62.5439 38.9726C62.5439 33.9355 66.6281 29.8478 71.6652 29.8478Z" fill="#EEEFEE"/>
<path fill-rule="evenodd" clip-rule="evenodd" d="M71.665 29.8478C75.8243 29.8478 79.3353 32.6315 80.4315 36.4362C79.3353 40.2409 75.8243 43.0245 71.665 43.0245C67.5056 43.0245 63.9983 40.2409 62.8984 36.4362C63.9983 32.6315 67.5056 29.8478 71.665 29.8478Z" fill="#FEFEFE"/>
<path fill-rule="evenodd" clip-rule="evenodd" d="M52.5027 33.2979C55.7557 33.2979 58.396 35.9347 58.396 39.1877C58.396 42.4442 55.7557 45.081 52.5027 45.081C49.2461 45.081 46.6094 42.4442 46.6094 39.1877C46.6094 38.1021 46.9067 37.0847 47.4154 36.2141C47.8382 37.2531 48.8556 37.9839 50.0486 37.9839C51.6142 37.9839 52.886 36.7157 52.886 35.1465C52.886 34.4408 52.6317 33.7995 52.2053 33.3051C52.3057 33.2979 52.406 33.2979 52.5027 33.2979Z" fill="#4D4C4B"/>
<path fill-rule="evenodd" clip-rule="evenodd" d="M70.5193 33.2979C73.7759 33.2979 76.4126 35.9347 76.4126 39.1877C76.4126 42.4442 73.7759 45.081 70.5193 45.081C67.2663 45.081 64.626 42.4442 64.626 39.1877C64.626 38.1021 64.9197 37.0847 65.4321 36.2141C65.8548 37.2531 66.8758 37.9839 68.0652 37.9839C69.6344 37.9839 70.9026 36.7157 70.9026 35.1465C70.9026 34.4408 70.6483 33.7995 70.2219 33.3051C70.3223 33.2979 70.419 33.2979 70.5193 33.2979Z" fill="#4D4C4B"/>
<path fill-rule="evenodd" clip-rule="evenodd" d="M157.646 47.3699C156.331 48.7026 154.755 49.3762 152.932 49.3762C151.456 49.3762 150.202 49.0752 148.923 48.33V45.2705C149.954 45.9691 151.244 46.6319 152.523 46.6319C155.181 46.6319 156.768 44.8012 156.768 42.2074C156.768 39.6101 155.128 37.7221 152.466 37.7221C151.276 37.7221 150.313 38.1484 149.56 39.0046C148.754 39.9361 148.335 41.2616 148.335 43.0171V55.1047H148.134C146.669 55.1047 145.48 53.9153 145.48 52.45V42.5621C145.48 38.3669 148.045 34.9814 152.455 34.9814C154.63 34.9814 156.399 35.723 157.739 37.2205C158.997 38.6141 159.624 40.3875 159.624 42.5155C159.624 44.4107 158.965 46.0336 157.646 47.3699ZM97.0865 49.0931C94.2956 49.0931 92.9092 47.1944 92.9092 44.5397V34.4763C92.9092 33.0074 94.0986 31.818 95.5639 31.818H95.7645V35.2608H100.59V38.0051H95.7645V44.8585C95.7645 46.0229 96.284 46.3525 97.3981 46.3525H100.59V49.0931H97.0865ZM113.674 47.3448C112.262 48.699 110.568 49.3762 108.597 49.3762C106.645 49.3762 104.957 48.699 103.549 47.3448C102.134 45.987 101.429 44.2602 101.429 42.1788C101.429 38.1161 104.531 34.9814 108.597 34.9814C110.55 34.9814 112.241 35.6621 113.659 37.0235C115.085 38.392 115.795 40.1152 115.795 42.1788C115.795 44.2602 115.089 45.987 113.674 47.3448ZM127.026 38.589C126.607 39.2912 126.281 39.7964 126.055 40.1009C125.801 40.4305 125.554 40.6956 125.306 40.8783C127.291 41.5196 128.029 42.8953 128.029 44.9445V49.0931H127.828C126.363 49.0931 125.174 47.9073 125.174 46.4384V45.224C125.174 43.8984 124.579 42.9992 123.175 42.9992H120.581V49.0931H120.38C118.915 49.0931 117.726 47.9073 117.726 46.4384V31.7105C117.726 30.2417 118.915 29.0522 120.38 29.0522H120.581V40.2263H121.426C122.351 40.2263 122.963 39.911 123.311 39.3091L125.711 35.2608H128.964L127.026 38.589ZM141.768 47.3448C140.357 48.699 138.662 49.3762 136.692 49.3762C134.739 49.3762 133.055 48.699 131.644 47.3448C130.229 45.987 129.523 44.2602 129.523 42.1788C129.523 38.1161 132.622 34.9814 136.692 34.9814C138.644 34.9814 140.335 35.6621 141.754 37.0235C143.18 38.392 143.889 40.1152 143.889 42.1788C143.889 44.2602 143.183 45.987 141.768 47.3448ZM139.708 38.958C138.92 38.1341 137.921 37.7221 136.692 37.7221C134.062 37.7221 132.489 39.6387 132.489 42.1788C132.489 44.683 134.102 46.6319 136.692 46.6319C139.282 46.6319 140.891 44.683 140.891 42.1788C140.891 40.8496 140.493 39.782 139.708 38.958ZM111.614 38.958C110.826 38.1341 109.826 37.7221 108.597 37.7221C105.968 37.7221 104.395 39.6387 104.395 42.1788C104.395 44.683 106.007 46.6319 108.597 46.6319C111.187 46.6319 112.8 44.683 112.8 42.1788C112.8 40.8496 112.398 39.782 111.614 38.958ZM188.567 47.266C187.256 48.674 185.572 49.3762 183.523 49.3762C181.366 49.3762 179.607 48.631 178.267 47.137C177.01 45.7219 176.383 43.9521 176.383 41.8384C176.383 38.1018 179.267 34.9814 183.061 34.9814C184.526 34.9814 185.798 35.2895 187.084 35.9917V39.0834C186.052 38.3884 184.759 37.7221 183.484 37.7221C180.825 37.7221 179.238 39.5528 179.238 42.1501C179.238 44.7116 180.915 46.6319 183.537 46.6319C184.727 46.6319 185.705 46.1877 186.489 45.292C187.267 44.4 187.672 43.0923 187.672 41.3333V31.7105C187.672 30.2417 188.858 29.0522 190.326 29.0522H190.527V41.7811C190.527 44.0238 189.879 45.8581 188.567 47.266ZM196.632 33.62C196.334 33.9568 195.904 34.1108 195.378 34.1108C194.4 34.1108 193.698 33.3872 193.698 32.4163C193.698 31.4203 194.385 30.7468 195.378 30.7468C196.334 30.7468 197.062 31.4561 197.062 32.4163C197.062 32.8892 196.922 33.2976 196.632 33.62ZM211.145 41.3333C211.145 40.2048 210.718 39.3163 209.862 38.6392C209.088 38.0302 208.125 37.7221 206.957 37.7221C204.37 37.7221 202.711 39.7426 202.711 42.2325C202.711 44.6328 204.47 46.6319 206.932 46.6319C208.64 46.6319 209.554 45.6324 210.528 44.3892V47.979C210.03 48.3515 209.461 48.7564 208.877 48.9928C208.261 49.2508 207.526 49.3762 206.677 49.3762C202.568 49.3762 199.856 45.9727 199.856 42.0355C199.856 40.0149 200.483 38.3454 201.748 37.045C203.087 35.6657 204.847 34.9814 207 34.9814C211.08 34.9814 214 37.3244 214 41.5554V49.0931H213.799C212.334 49.0931 211.145 47.9073 211.145 46.4384V41.3333ZM172.048 40.5236C171.686 39.4059 171.235 38.8577 170.192 38.2774C167.72 36.8945 165.284 38.0696 164.152 40.5129L172.048 40.5236ZM169.87 49.3332C168.046 49.7201 166.255 49.4227 164.51 48.4483C162.805 47.4953 161.666 46.0802 161.093 44.2101C159.939 40.4305 162.307 36.2174 166.115 35.1963C168.003 34.6912 169.813 34.9205 171.532 35.8806C174.391 37.4784 175.43 39.9468 175.247 43.1317L163.744 43.1067C163.912 44.4071 164.718 45.421 165.847 46.0515C166.993 46.6928 168.05 46.8469 169.028 46.5423C170.114 46.202 170.995 45.3171 171.711 44.4895L174.058 46.1984C173.101 47.9109 171.797 48.9248 169.87 49.3332ZM193.952 35.2608H196.807V49.0931H196.607C195.141 49.0931 193.952 47.9073 193.952 46.4384V35.2608Z" fill="#3CAF41"/>
</svg>
